<svg width="157" height="23" viewBox="0 0 157 23" fill="none" xmlns="http://www.w3.org/2000/svg">
<path d="M0.864 17L8.784 0.199999H12.912L20.784 17H15.984L11.808 8.168C11.632 7.768 11.472 7.4 11.328 7.064C11.184 6.728 11.056 6.408 10.944 6.104C10.832 5.784 10.72 5.472 10.608 5.168C10.512 4.848 10.424 4.528 10.344 4.208L11.256 4.184C11.16 4.536 11.056 4.872 10.944 5.192C10.848 5.512 10.736 5.832 10.608 6.152C10.48 6.456 10.344 6.776 10.2 7.112C10.056 7.432 9.896 7.784 9.72 8.168L5.568 17H0.864ZM4.632 14.384L6.096 11.024H15.552L16.368 14.384H4.632ZM25.6643 17V4.208H29.8163L30.0563 8.864L28.7603 8.72C29.0163 7.84 29.4243 7.04 29.9843 6.32C30.5603 5.584 31.2403 5.008 32.0243 4.592C32.8243 4.16 33.6563 3.944 34.5203 3.944C35.0323 3.944 35.5283 3.992 36.0083 4.088C36.4883 4.184 36.9043 4.32 37.2563 4.496L36.0323 9.344C35.7603 9.136 35.3523 8.968 34.8083 8.84C34.2803 8.712 33.7523 8.648 33.2243 8.648C32.6963 8.648 32.2323 8.728 31.8323 8.888C31.4483 9.032 31.1283 9.24 30.8723 9.512C30.6163 9.768 30.4243 10.056 30.2963 10.376C30.1843 10.696 30.1283 11.04 30.1283 11.408V17H25.6643ZM45.0992 17V0.439999H49.5632V17H45.0992ZM41.9552 8V4.208H53.1872V8H41.9552ZM65.9192 17.24C64.3032 17.24 62.8552 17.032 61.5752 16.616C60.2952 16.2 59.2712 15.608 58.5032 14.84L61.1432 12.488C61.7032 12.984 62.4232 13.376 63.3032 13.664C64.1992 13.952 65.1752 14.096 66.2312 14.096C66.5192 14.096 66.7832 14.08 67.0232 14.048C67.2632 14.016 67.4792 13.968 67.6712 13.904C67.8792 13.824 68.0392 13.736 68.1512 13.64C68.2792 13.528 68.3432 13.4 68.3432 13.256C68.3432 13 68.1512 12.816 67.7672 12.704C67.4792 12.592 67.0792 12.504 66.5672 12.44C66.0712 12.376 65.5752 12.304 65.0792 12.224C64.0712 12.064 63.1912 11.896 62.4392 11.72C61.7032 11.528 61.0632 11.264 60.5192 10.928C60.0552 10.608 59.6792 10.216 59.3912 9.752C59.1192 9.272 58.9832 8.704 58.9832 8.048C58.9832 7.392 59.1672 6.816 59.5352 6.32C59.9032 5.808 60.3912 5.376 60.9992 5.024C61.6232 4.656 62.3352 4.384 63.1352 4.208C63.9512 4.032 64.7992 3.944 65.6792 3.944C66.5272 3.944 67.3752 4.016 68.2232 4.16C69.0712 4.288 69.8712 4.488 70.6232 4.76C71.3912 5.032 72.0712 5.392 72.6632 5.84L70.4552 8.48C70.0712 8.24 69.6072 8.008 69.0632 7.784C68.5192 7.544 67.9112 7.352 67.2392 7.208C66.5832 7.064 65.9112 6.992 65.2232 6.992C64.9512 6.992 64.7032 7.008 64.4792 7.04C64.2552 7.072 64.0472 7.12 63.8552 7.184C63.6632 7.232 63.5112 7.304 63.3992 7.4C63.3032 7.496 63.2552 7.608 63.2552 7.736C63.2552 7.848 63.2872 7.952 63.3512 8.048C63.4152 8.128 63.5112 8.2 63.6392 8.264C63.8792 8.408 64.2552 8.528 64.7672 8.624C65.2952 8.72 65.8952 8.824 66.5672 8.936C67.8632 9.144 68.9272 9.392 69.7592 9.68C70.6072 9.952 71.2632 10.288 71.7272 10.688C72.1112 10.976 72.3752 11.304 72.5192 11.672C72.6792 12.04 72.7592 12.464 72.7592 12.944C72.7592 13.792 72.4712 14.536 71.8952 15.176C71.3352 15.816 70.5432 16.32 69.5192 16.688C68.5112 17.056 67.3112 17.24 65.9192 17.24ZM78.6564 22.28V4.184H82.8084L83.0484 7.04L82.1604 6.824C82.2724 6.312 82.5924 5.84 83.1204 5.408C83.6644 4.976 84.3524 4.624 85.1844 4.352C86.0324 4.08 86.9604 3.944 87.9684 3.944C89.2964 3.944 90.4724 4.224 91.4964 4.784C92.5204 5.344 93.3044 6.12 93.8484 7.112C94.4084 8.104 94.6884 9.264 94.6884 10.592C94.6884 11.888 94.4004 13.04 93.8244 14.048C93.2644 15.04 92.4724 15.816 91.4484 16.376C90.4244 16.936 89.2324 17.216 87.8724 17.216C86.8804 17.216 85.9764 17.072 85.1604 16.784C84.3444 16.496 83.6724 16.12 83.1444 15.656C82.6164 15.192 82.2804 14.704 82.1364 14.192L83.1444 13.856V22.28H78.6564ZM86.6724 13.544C87.4404 13.544 88.0964 13.424 88.6404 13.184C89.1844 12.944 89.6004 12.6 89.8884 12.152C90.1764 11.704 90.3204 11.184 90.3204 10.592C90.3204 9.968 90.1764 9.44 89.8884 9.008C89.6004 8.56 89.1844 8.216 88.6404 7.976C88.0964 7.736 87.4404 7.616 86.6724 7.616C85.9364 7.616 85.2884 7.744 84.7284 8C84.1844 8.24 83.7604 8.584 83.4564 9.032C83.1684 9.464 83.0244 9.984 83.0244 10.592C83.0244 11.184 83.1684 11.704 83.4564 12.152C83.7604 12.6 84.1844 12.944 84.7284 13.184C85.2884 13.424 85.9364 13.544 86.6724 13.544ZM106.22 17.216C104.812 17.216 103.596 16.936 102.572 16.376C101.548 15.8 100.748 15.016 100.172 14.024C99.6119 13.032 99.3319 11.896 99.3319 10.616C99.3319 9.304 99.6199 8.152 100.196 7.16C100.772 6.152 101.572 5.368 102.596 4.808C103.636 4.232 104.852 3.944 106.244 3.944C107.044 3.944 107.772 4.032 108.428 4.208C109.1 4.384 109.684 4.632 110.18 4.952C110.692 5.256 111.108 5.592 111.428 5.96C111.764 6.312 111.988 6.656 112.1 6.992L111.068 7.112V4.208H115.46V17H110.972V13.544L111.884 13.832C111.82 14.264 111.628 14.68 111.308 15.08C110.988 15.48 110.572 15.84 110.06 16.16C109.564 16.48 108.988 16.736 108.332 16.928C107.692 17.12 106.988 17.216 106.22 17.216ZM107.42 13.544C108.188 13.544 108.844 13.424 109.388 13.184C109.932 12.944 110.348 12.6 110.636 12.152C110.94 11.704 111.092 11.192 111.092 10.616C111.092 9.992 110.94 9.464 110.636 9.032C110.348 8.584 109.932 8.24 109.388 8C108.844 7.76 108.188 7.64 107.42 7.64C106.668 7.64 106.012 7.76 105.452 8C104.908 8.24 104.484 8.584 104.18 9.032C103.892 9.464 103.748 9.992 103.748 10.616C103.748 11.192 103.892 11.704 104.18 12.152C104.484 12.6 104.908 12.944 105.452 13.184C106.012 13.424 106.668 13.544 107.42 13.544ZM129.928 17.24C128.344 17.24 126.936 16.952 125.704 16.376C124.472 15.8 123.512 15.008 122.824 14C122.152 12.992 121.816 11.856 121.816 10.592C121.816 9.296 122.152 8.152 122.824 7.16C123.496 6.168 124.424 5.384 125.608 4.808C126.808 4.232 128.152 3.944 129.64 3.944C131.048 3.944 132.336 4.12 133.504 4.472C134.688 4.824 135.696 5.336 136.528 6.008L134.08 9.128C133.76 8.872 133.384 8.64 132.952 8.432C132.536 8.224 132.08 8.064 131.584 7.952C131.104 7.824 130.6 7.76 130.072 7.76C129.288 7.76 128.616 7.88 128.056 8.12C127.512 8.36 127.088 8.688 126.784 9.104C126.496 9.52 126.352 10.008 126.352 10.568C126.352 11.128 126.496 11.624 126.784 12.056C127.088 12.472 127.52 12.8 128.08 13.04C128.64 13.28 129.296 13.4 130.048 13.4C130.704 13.4 131.28 13.344 131.776 13.232C132.288 13.12 132.736 12.992 133.12 12.848C133.504 12.688 133.84 12.52 134.128 12.344L136.504 15.416C135.656 15.96 134.68 16.4 133.576 16.736C132.488 17.072 131.272 17.24 129.928 17.24ZM149.241 17.24C147.529 17.24 146.033 16.96 144.753 16.4C143.489 15.824 142.513 15.032 141.825 14.024C141.137 13.016 140.793 11.88 140.793 10.616C140.793 9.608 140.993 8.696 141.393 7.88C141.809 7.048 142.377 6.344 143.097 5.768C143.817 5.192 144.657 4.744 145.617 4.424C146.577 4.104 147.585 3.944 148.641 3.944C149.745 3.944 150.753 4.104 151.665 4.424C152.593 4.744 153.401 5.2 154.089 5.792C154.777 6.368 155.305 7.056 155.673 7.856C156.057 8.656 156.233 9.544 156.201 10.52L156.177 11.6H143.673L143.121 9.104H152.601L152.169 9.776V9.32C152.137 8.936 151.961 8.608 151.641 8.336C151.321 8.048 150.905 7.824 150.393 7.664C149.897 7.504 149.345 7.424 148.737 7.424C148.017 7.424 147.369 7.528 146.793 7.736C146.217 7.928 145.753 8.24 145.401 8.672C145.065 9.088 144.897 9.616 144.897 10.256C144.897 10.88 145.089 11.448 145.473 11.96C145.873 12.456 146.449 12.856 147.201 13.16C147.969 13.448 148.873 13.592 149.913 13.592C150.905 13.592 151.705 13.488 152.313 13.28C152.921 13.056 153.393 12.856 153.729 12.68L155.673 15.44C155.049 15.856 154.385 16.2 153.681 16.472C152.993 16.728 152.281 16.92 151.545 17.048C150.809 17.176 150.041 17.24 149.241 17.24Z" fill="black"/>
</svg>
